<svg width="142" height="53" viewBox="0 0 1683 631" fill="none" xmlns="http://www.w3.org/2000/svg">
<path fill-rule="evenodd" clip-rule="evenodd" d="M107.502 353.36V312.555C107.502 269.016 139.269 240.201 187.234 240.201C211.217 240.201 236.462 248.193 248.664 267.965C252.661 274.485 252.03 289.208 239.197 294.046C227.416 298.673 218.58 294.046 214.162 290.05C203.854 280.164 193.545 277.85 187.234 277.85C165.145 277.85 150.418 292.574 150.418 314.869V351.046C150.418 373.342 165.145 388.065 187.444 388.065C197.332 388.065 206.799 384.489 215.424 375.024C221.104 368.925 229.309 366.19 239.828 370.397C253.081 375.866 254.344 387.644 251.819 392.903C240.88 415.619 214.793 425.504 187.444 425.504C139.269 425.715 107.502 396.899 107.502 353.36Z" fill="#006FCF"/>
<path fill-rule="evenodd" clip-rule="evenodd" d="M350.064 367.663V349.364C350.064 335.692 341.228 326.648 327.975 326.648C314.511 326.648 305.675 335.692 305.675 349.364V367.663C305.675 381.334 314.511 390.379 327.975 390.379C341.228 390.379 350.064 381.334 350.064 367.663ZM264.862 368.714V348.312C264.862 314.238 290.107 291.312 328.185 291.312C366.053 291.312 391.298 314.028 391.298 348.312V368.714C391.298 402.788 366.053 425.715 328.185 425.715C290.107 425.715 264.862 402.999 264.862 368.714Z" fill="#006FCF"/>
<path fill-rule="evenodd" clip-rule="evenodd" d="M526.989 339.899V404.681C526.989 418.143 519.836 425.715 506.583 425.715C493.329 425.715 486.176 418.143 486.176 404.681V346.629C486.176 334.64 478.392 326.648 467.032 326.648C455.672 326.648 447.888 334.64 447.888 346.629V404.681C447.888 418.143 440.735 425.715 427.482 425.715C414.228 425.715 407.075 418.143 407.075 404.681V312.345C407.075 298.884 413.597 291.312 425.799 291.312C436.317 291.312 442.629 296.78 444.522 306.876C453.147 296.991 465.77 291.312 480.706 291.312C508.476 291.522 526.989 310.873 526.989 339.899Z" fill="#006FCF"/>
<path fill-rule="evenodd" clip-rule="evenodd" d="M583.16 344.105H624.183C623.341 330.854 615.347 322.231 603.776 322.231C591.995 322.231 584.001 330.854 583.16 344.105ZM664.996 347.471V355.043C664.996 365.559 659.105 371.449 648.586 371.449H582.949C583.16 385.751 591.785 395.216 604.408 395.216C609.877 395.216 616.609 392.903 624.604 386.593C627.97 383.858 633.439 380.283 642.485 383.017C657.001 387.434 659.947 399.213 655.739 405.943C647.324 419.194 625.235 425.925 604.197 425.925C566.961 425.925 541.716 403.63 541.716 369.976V347.681C541.716 314.028 566.33 291.732 603.145 291.732C640.382 291.522 664.996 313.817 664.996 347.471Z" fill="#006FCF"/>
<path fill-rule="evenodd" clip-rule="evenodd" d="M675.725 368.504V348.522C675.725 314.238 701.18 291.312 739.258 291.312C757.771 291.312 777.756 295.729 786.171 312.766C788.906 318.445 788.275 331.275 776.073 335.061C765.344 338.426 758.402 335.692 754.615 332.537C748.514 327.068 743.676 326.648 739.047 326.648C725.583 326.648 716.537 335.692 716.537 349.364V367.663C716.537 381.334 725.583 390.379 739.258 390.379C743.255 390.379 749.987 389.327 756.088 383.227C759.454 380.072 765.975 376.707 776.284 380.072C788.065 383.858 789.958 394.375 788.065 401.526C783.437 419.194 759.454 425.715 739.047 425.715C701.18 425.715 675.725 402.999 675.725 368.504Z" fill="#006FCF"/>
<path fill-rule="evenodd" clip-rule="evenodd" d="M886.31 407.416C886.31 417.722 880.42 423.401 869.901 423.401H862.538C835.4 423.401 817.518 407.836 817.518 384.7V325.596H813.521C803.002 325.596 797.111 319.917 797.111 309.611C797.111 299.304 803.002 293.625 813.521 293.625H818.57V278.061C818.57 264.599 825.722 257.027 838.555 257.027C851.598 257.027 858.541 264.599 858.541 278.061V293.625H872.215C882.734 293.625 888.624 299.304 888.624 309.611C888.624 319.917 882.734 325.596 872.215 325.596H858.541V382.596C858.541 388.065 861.907 391.641 867.166 391.641H869.901C880.42 391.641 886.31 397.32 886.31 407.416Z" fill="#006FCF"/>
<path fill-rule="evenodd" clip-rule="evenodd" d="M935.748 344.105H976.771C975.929 330.854 967.935 322.231 956.364 322.231C944.583 322.231 936.589 330.854 935.748 344.105ZM1017.58 347.471V355.043C1017.58 365.559 1011.69 371.449 1001.17 371.449H935.537C935.748 385.751 944.373 395.216 956.995 395.216C962.465 395.216 969.197 392.903 977.191 386.593C980.557 383.858 986.027 380.283 995.073 383.017C1009.59 387.434 1012.53 399.213 1008.33 405.943C999.912 419.194 977.823 425.925 956.785 425.925C919.549 425.925 894.304 403.63 894.304 369.976V347.681C894.304 314.028 918.918 291.732 955.733 291.732C993.18 291.522 1017.58 313.817 1017.58 347.471Z" fill="#006FCF"/>
<path fill-rule="evenodd" clip-rule="evenodd" d="M1045.35 408.047C1039.46 398.161 1041.99 384.7 1056.29 377.759C1069.55 371.449 1078.59 379.021 1082.8 382.596C1096.47 394.796 1108.89 397.53 1120.88 397.53C1141.92 397.53 1156.22 388.906 1156.22 375.866V375.024C1156.22 336.954 1040.51 371.238 1040.51 294.677V291.312C1040.51 254.293 1072.28 229.474 1120.46 229.474C1148.02 229.474 1173.89 238.097 1189.04 256.186C1197.24 265.861 1192.41 280.795 1178.52 286.684C1164.85 292.574 1156.85 286.684 1152.22 282.267C1140.23 270.909 1128.87 268.806 1118.98 268.806C1099.21 268.806 1086.17 276.168 1086.17 287.105V287.946C1086.17 327.699 1203.13 292.574 1203.13 368.083V371.449C1203.13 410.571 1169.47 436.862 1119.41 436.862C1089.95 436.862 1058.82 430.763 1045.35 408.047Z" fill="#006FCF"/>
<path fill-rule="evenodd" clip-rule="evenodd" d="M1220.81 367.031V262.496C1220.81 247.772 1228.8 239.78 1243.53 239.78C1258.25 239.78 1266.25 247.772 1266.25 262.496V364.507C1266.25 384.068 1279.29 396.899 1298.65 396.899C1318 396.899 1330.83 384.068 1330.83 364.507V262.496C1330.83 247.772 1338.83 239.78 1353.55 239.78C1368.28 239.78 1376.27 247.772 1376.27 262.496V367.031C1376.27 409.098 1345.35 436.862 1298.65 436.862C1251.94 436.862 1220.81 409.098 1220.81 367.031Z" fill="#006FCF"/>
<path fill-rule="evenodd" clip-rule="evenodd" d="M1400.05 409.308C1394.58 399.843 1396.89 387.013 1410.35 380.493C1422.98 374.393 1431.6 381.755 1435.6 385.12C1448.64 396.688 1460.42 399.423 1471.99 399.423C1491.98 399.423 1505.65 391.22 1505.65 378.81V378.179C1505.65 341.791 1395.63 374.603 1395.63 301.828V298.673C1395.63 263.337 1425.92 239.78 1471.57 239.78C1497.66 239.78 1522.48 247.983 1537 265.23C1544.78 274.485 1540.16 288.787 1527.11 294.256C1514.07 299.725 1506.5 294.256 1502.29 290.049C1490.93 279.112 1479.99 277.219 1470.52 277.219C1451.59 277.219 1439.39 284.16 1439.39 294.677V295.308C1439.39 332.957 1550.67 299.725 1550.67 371.448V374.603C1550.67 411.832 1518.7 436.862 1471.15 436.862C1442.54 436.862 1412.88 431.183 1400.05 409.308Z" fill="#006FCF"/>
</svg>
